<svg width="134" height="84" viewBox="0 0 134 84" fill="none" xmlns="http://www.w3.org/2000/svg">
<path d="M67 83.9267C104.003 83.9267 134 77.4294 134 69.4145C134 61.3997 104.003 54.9023 67 54.9023C29.9969 54.9023 0 61.3997 0 69.4145C0 77.4294 29.9969 83.9267 67 83.9267Z" fill="white"/>
<path d="M115.156 27.4537L93.9131 3.60805C92.8934 1.98268 91.4048 1 89.8365 1H44.1635C42.5953 1 41.1066 1.98268 40.0869 3.60598L18.8438 27.4557V46.6098H115.156V27.4537Z" stroke="#EAEBED"/>
<path d="M87.1272 34.0276C87.1272 30.7002 89.2084 27.9532 91.79 27.9512H115.156V65.5523C115.156 69.9536 112.392 73.5609 108.98 73.5609H25.0203C21.6075 73.5609 18.8438 69.9515 18.8438 65.5523V27.9512H42.21C44.7916 27.9512 46.8728 30.694 46.8728 34.0214V34.067C46.8728 37.3945 48.977 40.0813 51.5565 40.0813H82.4435C85.023 40.0813 87.1272 37.3696 87.1272 34.0421V34.0276V34.0276Z" fill="white" stroke="#EAEBED"/>
</svg>
