<svg width="775" height="199" viewBox="0 0 775 199" fill="none" xmlns="http://www.w3.org/2000/svg">
<path opacity="0.23" fill-rule="evenodd" clip-rule="evenodd" d="M0.679688 12.2748H54.0257V91.5245L122.328 12.2748H183.076L98.9014 109.49L187.37 219.558H124.652L54.0257 131.694V219.558H0.679688V12.2748ZM53.0089 128.806L125.14 218.542H185.249L97.5775 109.466L180.85 13.2915H122.794L53.0089 94.2616V13.2915H1.69642V218.542H53.0089V128.806ZM205.701 12.2748H258.167V219.558H205.701V12.2748ZM206.717 218.542V13.2915H257.15V218.542H206.717ZM414.961 140.737C414.639 140.866 414.315 140.993 413.988 141.118L467.477 218.542H409.42L365.366 147.29H350.191V218.542H300.638V13.2915H375.407C393 13.2915 407.661 16.1259 419.389 21.7948C431.118 27.4636 440.012 35.3804 446.072 45.5451C452.132 55.5144 455.162 67.1452 455.162 80.4376C455.162 93.5345 452.132 105.165 446.072 115.33C440.012 125.299 431.118 133.118 419.389 138.787C417.957 139.48 416.481 140.13 414.961 140.737ZM350.191 108.879H371.889C378.535 108.879 384.204 107.902 388.895 105.947C393.782 103.797 397.496 100.767 400.037 96.8576C402.578 92.7526 403.849 87.8657 403.849 82.1969C403.849 76.5281 402.578 71.7389 400.037 67.8294C397.496 63.7244 393.782 60.5968 388.895 58.4466C384.204 56.2963 378.535 55.2212 371.889 55.2212H350.191V108.879ZM351.208 56.2379H371.889C378.429 56.2379 383.945 57.2964 388.471 59.3708L388.479 59.3741L388.486 59.3772C393.205 61.4538 396.751 64.4527 399.173 68.3646L399.179 68.3741L399.185 68.3835C401.598 72.0956 402.832 76.682 402.832 82.1969C402.832 87.7057 401.6 92.3971 399.178 96.3132C396.762 100.027 393.219 102.932 388.495 105.013C383.961 106.9 378.435 107.863 371.889 107.863H351.208V56.2379ZM375.407 12.2748C393.102 12.2748 407.926 15.1247 419.832 20.8793C431.719 26.6248 440.77 34.669 446.942 45.0194C453.111 55.1685 456.178 66.9866 456.178 80.4376C456.178 93.6977 453.109 105.512 446.945 115.851L446.941 115.858C440.768 126.014 431.716 133.959 419.832 139.703C418.445 140.373 417.019 141.004 415.554 141.595L469.415 219.558H408.853L364.799 148.307H351.208V219.558H299.621V12.2748H375.407ZM489.466 12.2748H541.932V219.558H489.466V12.2748ZM490.482 218.542V13.2915H540.915V218.542H490.482ZM725.008 12.2748H774.836V231.064L632.92 105.275V219.558H583.386V0.766113L725.008 126.555V12.2748ZM726.025 13.2915H773.819V228.804L631.903 103.015V218.542H584.403V3.02905L726.025 128.818V13.2915Z" fill="white"/>
</svg>
