<svg width="19" height="19" viewBox="0 0 19 19" xmlns="http://www.w3.org/2000/svg">
<g clip-path="url(#clip0_354_16796)">
<path d="M9.77835 10.6696C9.57249 10.8756 9.23864 10.8756 9.03265 10.6696L6.63626 8.27324C6.53738 8.17436 6.48176 8.04019 6.48176 7.90039C6.48176 7.76045 6.53738 7.62642 6.63626 7.5274L7.06225 7.10155L5.81104 5.85034L4.78602 6.87537C4.44105 7.22034 4.44119 7.7816 4.78602 8.12657L9.17932 12.5201C9.34535 12.6862 9.56754 12.7775 9.80499 12.7775C10.0424 12.7775 10.2646 12.686 10.4307 12.52L11.4557 11.4951L10.2045 10.2438L9.77835 10.6696Z"/>
<path d="M17.4096 6.85312C17.4096 5.16246 16.7471 3.56889 15.5439 2.36575C14.3407 1.16261 12.7471 0.5 11.0566 0.5H7.2923C7.2923 0.5 7.2923 0.5 7.29216 0.5C5.60178 0.5 4.00821 1.16261 2.80521 2.36562C1.60207 3.56876 0.939453 5.16246 0.939453 6.85298V9.81187C0.939453 11.121 1.33881 12.3805 2.09439 13.454C2.76099 14.401 3.65747 15.1407 4.70268 15.6098V17.3094C4.70268 18.1881 5.19473 18.4999 5.61606 18.5C5.91708 18.5 6.21825 18.3514 6.51131 18.0585L8.40466 16.1649H11.0568C12.7473 16.1649 14.3409 15.5022 15.544 14.2991C16.7471 13.096 17.4097 11.5024 17.4097 9.81187L17.4096 6.85312ZM12.574 11.868L11.176 13.2658C10.8107 13.6311 10.3237 13.832 9.8046 13.832C9.28549 13.832 8.79852 13.631 8.43323 13.2658L4.03979 8.87227C3.2838 8.116 3.2838 6.88567 4.03979 6.12953L5.43781 4.73166C5.53668 4.63264 5.67072 4.57716 5.81065 4.57716C5.95045 4.57716 6.08463 4.63264 6.1835 4.73166L8.18054 6.7287C8.27942 6.82758 8.3349 6.96175 8.3349 7.10155C8.3349 7.24135 8.27942 7.37552 8.1804 7.4744L7.75455 7.90025L9.40524 9.55095L9.83124 9.12495C10.0372 8.9191 10.3711 8.9191 10.5769 9.12509L12.574 11.1221C12.673 11.221 12.7285 11.3552 12.7285 11.495C12.7285 11.6349 12.673 11.7691 12.574 11.868ZM8.77518 5.61949C8.77518 5.32835 9.01125 5.09215 9.30252 5.09215C11.1297 5.09215 12.6163 6.5786 12.6163 8.40562C12.6163 8.6969 12.3802 8.93297 12.0889 8.93297C11.7978 8.93297 11.5616 8.6969 11.5616 8.40562C11.5616 7.16019 10.5482 6.14684 9.30252 6.14684C9.01125 6.14684 8.77518 5.91077 8.77518 5.61949ZM14.3481 8.93324C14.0569 8.93324 13.8208 8.69704 13.8208 8.4059C13.8209 7.19891 13.3508 6.0643 12.4975 5.2108C11.644 4.35744 10.5094 3.88736 9.30238 3.88736C9.01125 3.88736 8.77504 3.65129 8.77504 3.36002C8.77504 3.06888 9.01125 2.83267 9.30238 2.83267C10.791 2.83267 12.1906 3.41248 13.2432 4.4651C14.2959 5.51773 14.8756 6.91725 14.8755 8.4059C14.8755 8.69704 14.6394 8.93324 14.3481 8.93324Z"/>
</g>
<defs>
<clipPath id="clip0_354_16796">
<rect width="18" height="18" transform="translate(0.166016 0.5)"/>
</clipPath>
</defs>
</svg>
