<svg width="20" height="20" viewBox="0 0 20 20" xmlns="http://www.w3.org/2000/svg">
<path d="M19.4141 11.2638H18.7766L16.7349 6.32541C17.0208 6.2865 17.2413 6.04205 17.2413 5.74549C17.2413 5.42189 16.979 5.15955 16.6554 5.15955H11.6177C11.3769 4.49076 10.7363 4.01123 9.98559 4.01123C9.23488 4.01123 8.59422 4.4908 8.3534 5.15955H3.34465C3.02105 5.15955 2.75871 5.42189 2.75871 5.74549C2.75871 6.04205 2.97926 6.2865 3.26512 6.32541L1.22344 11.2638H0.585938C0.262344 11.2638 0 11.5262 0 11.8497C0 14.1319 1.85668 15.9886 4.13883 15.9886C6.42098 15.9886 8.27766 14.1319 8.27766 11.8497C8.27766 11.5262 8.01531 11.2638 7.69172 11.2638H7.05418L5.01504 6.33143H8.3534C8.59422 7.00022 9.23484 7.47975 9.98559 7.47975C10.7363 7.47975 11.3769 7.00022 11.6177 6.33143H14.985L12.9459 11.2638H12.3083C11.9847 11.2638 11.7224 11.5262 11.7224 11.8497C11.7224 14.1319 13.5791 15.9886 15.8612 15.9886C18.1434 15.9886 20 14.1319 20 11.8497C20 11.5262 19.7377 11.2638 19.4141 11.2638ZM4.13883 14.8167C2.70332 14.8167 1.5027 13.7921 1.22996 12.4357H7.0477C6.77496 13.7921 5.57434 14.8167 4.13883 14.8167ZM5.78613 11.2638H2.49152L4.13883 7.27928L5.78613 11.2638ZM9.98555 6.30787C9.67543 6.30787 9.42316 6.05561 9.42316 5.74549C9.42316 5.43537 9.67543 5.18311 9.98555 5.18311C10.2956 5.18311 10.5479 5.43537 10.5479 5.74549C10.5479 6.05561 10.2957 6.30787 9.98555 6.30787ZM15.8612 7.27928L17.5085 11.2638H14.2139L15.8612 7.27928ZM15.8612 14.8167C14.4257 14.8167 13.225 13.7921 12.9523 12.4357H18.77C18.4973 13.7921 17.2966 14.8167 15.8612 14.8167Z"/>
<path fill-rule="evenodd" clip-rule="evenodd" d="M18.77 12.4357C18.613 13.2166 18.1484 13.8876 17.5085 14.3163C17.4207 14.3751 17.3297 14.4293 17.2357 14.4787C16.84 14.6864 16.3919 14.8074 15.9168 14.8162C15.8983 14.8165 15.8798 14.8167 15.8612 14.8167C15.8612 14.8167 15.8612 14.8167 15.8612 14.8167C15.8426 14.8167 15.8241 14.8165 15.8056 14.8162C15.3305 14.8074 14.8824 14.6864 14.4866 14.4787C14.3927 14.4294 14.3016 14.3751 14.2139 14.3163C13.5739 13.8876 13.1093 13.2166 12.9523 12.4357H18.77ZM18.7766 11.2638H19.4141C19.7377 11.2638 20 11.5262 20 11.8497C20 12.1293 19.9721 12.4025 19.919 12.6667C19.825 13.1346 19.6518 13.5742 19.4141 13.9709C19.2358 14.2684 19.0212 14.5417 18.7766 14.7848C18.7744 14.7869 18.7722 14.7891 18.77 14.7912C18.6549 14.9052 18.533 15.0124 18.4052 15.1123C18.3379 15.1649 18.269 15.2154 18.1985 15.2638C17.533 15.7209 16.7278 15.9886 15.8612 15.9886C15.8612 15.9886 15.8612 15.9886 15.8612 15.9886C14.9946 15.9886 14.1894 15.7209 13.5239 15.2638C13.4534 15.2154 13.3845 15.1649 13.3172 15.1123C13.1894 15.0124 13.0675 14.9051 12.9523 14.7912C12.9502 14.7891 12.948 14.7869 12.9459 14.7848C12.7012 14.5417 12.4866 14.2684 12.3083 13.9709C12.2303 13.8408 12.1593 13.706 12.0957 13.5672C11.9655 13.2827 11.8665 12.9811 11.8033 12.6667C11.7502 12.4025 11.7224 12.1293 11.7224 11.8497C11.7224 11.5489 11.9491 11.301 12.2411 11.2676C12.2631 11.2651 12.2856 11.2638 12.3083 11.2638H12.9459L14.985 6.33143H11.6177C11.6173 6.3325 11.617 6.33357 11.6166 6.33464C11.3968 6.94121 10.8479 7.39144 10.1867 7.46815C10.1207 7.47581 10.0536 7.47975 9.98559 7.47975C9.98557 7.47975 9.9856 7.47975 9.98559 7.47975C9.92794 7.47974 9.8709 7.47692 9.81468 7.47139C9.13994 7.40508 8.57764 6.9504 8.35454 6.33458C8.35416 6.33353 8.35378 6.33248 8.3534 6.33143H5.01504L7.05418 11.2638H7.69172C7.71447 11.2638 7.73691 11.2651 7.75898 11.2676C8.0509 11.301 8.27766 11.5489 8.27766 11.8497C8.27766 12.1293 8.24979 12.4025 8.19669 12.6667C8.13349 12.9811 8.03455 13.2827 7.90431 13.5672C7.84074 13.706 7.7697 13.8408 7.69172 13.9709C7.51344 14.2684 7.29887 14.5417 7.05418 14.7848C7.05202 14.7869 7.04986 14.7891 7.0477 14.7912C6.9325 14.9052 6.81067 15.0124 6.68284 15.1123C6.61557 15.1649 6.54665 15.2154 6.47615 15.2638C5.81063 15.7209 5.0054 15.9886 4.13883 15.9886C3.27225 15.9886 2.46702 15.7209 1.8015 15.2638C1.73101 15.2154 1.66208 15.1649 1.59482 15.1123C1.46699 15.0124 1.34516 14.9052 1.22996 14.7912C1.22778 14.7891 1.22561 14.7869 1.22344 14.7848C0.978759 14.5417 0.764205 14.2684 0.585938 13.9709C0.348209 13.5742 0.175013 13.1346 0.0809684 12.6667C0.0278667 12.4025 0 12.1293 0 11.8497C0 11.5262 0.262344 11.2638 0.585938 11.2638H1.22344L3.26512 6.32541C3.163 6.31151 3.06922 6.27138 2.99085 6.21202C2.84983 6.1052 2.75871 5.93611 2.75871 5.74549C2.75871 5.42189 3.02105 5.15955 3.34465 5.15955H8.3534C8.35378 5.1585 8.35416 5.15745 8.35454 5.1564C8.38642 5.06841 8.42522 4.98371 8.47029 4.90296C8.76692 4.37151 9.3349 4.01124 9.98555 4.01123C9.98556 4.01123 9.98553 4.01123 9.98555 4.01123C10.6298 4.01123 11.1931 4.36445 11.492 4.88737C11.5409 4.97279 11.5827 5.06273 11.6166 5.1564C11.617 5.15745 11.6174 5.1585 11.6177 5.15955H16.6554C16.979 5.15955 17.2413 5.42189 17.2413 5.74549C17.2413 5.9361 17.1502 6.10519 17.0092 6.21201C16.9309 6.27138 16.8371 6.31151 16.7349 6.32541L18.7766 11.2638ZM17.5085 11.2638L16.6385 9.15955L15.8612 7.27928L14.2139 11.2638H17.5085ZM3.36149 9.15951L2.49152 11.2638H5.78613L4.13883 7.27928L3.36149 9.15951ZM1.22996 12.4357C1.38699 13.2166 1.8516 13.8876 2.49152 14.3163C2.57926 14.3751 2.67029 14.4293 2.76428 14.4787C3.16 14.6864 3.60811 14.8074 4.08315 14.8162C4.10167 14.8165 4.12023 14.8167 4.13883 14.8167C4.15741 14.8167 4.17595 14.8165 4.19445 14.8162C4.66951 14.8074 5.11764 14.6864 5.51338 14.4787C5.60736 14.4293 5.6984 14.3751 5.78613 14.3163C6.42606 13.8876 6.89067 13.2166 7.0477 12.4357H1.22996ZM9.45696 5.93761C9.53563 6.1534 9.74287 6.30787 9.98555 6.30787C9.98556 6.30787 9.98553 6.30787 9.98555 6.30787C10.2282 6.30785 10.4355 6.1534 10.5141 5.93764C10.5145 5.93658 10.5149 5.93551 10.5153 5.93445C10.5364 5.87537 10.5479 5.81175 10.5479 5.74549C10.5479 5.67923 10.5364 5.61561 10.5153 5.55653C10.5149 5.55548 10.5145 5.55443 10.5141 5.55338C10.4355 5.3376 10.2282 5.18312 9.98559 5.18311C9.98557 5.18311 9.9856 5.18311 9.98559 5.18311C9.74291 5.18311 9.53563 5.33758 9.45696 5.55336C9.45657 5.55442 9.45619 5.55548 9.45581 5.55654C9.43468 5.61562 9.42316 5.67923 9.42316 5.74549C9.42316 5.81175 9.43468 5.87538 9.45582 5.93446C9.4562 5.93551 9.45658 5.93656 9.45696 5.93761Z"/>
</svg>
