<svg width="22" height="22" viewBox="0 0 22 22" xmlns="http://www.w3.org/2000/svg">
<path d="M16.7421 4.22441C14.7182 2.20059 11.4225 2.20059 9.40085 4.22441L3.79343 9.82754C3.7569 9.86406 3.73757 9.91348 3.73757 9.96504C3.73757 10.0166 3.7569 10.066 3.79343 10.1025L4.5862 10.8953C4.62244 10.9314 4.67149 10.9516 4.72263 10.9516C4.77376 10.9516 4.82282 10.9314 4.85905 10.8953L10.4665 5.29219C11.1626 4.59609 12.0885 4.21367 13.0725 4.21367C14.0565 4.21367 14.9825 4.59609 15.6764 5.29219C16.3725 5.98828 16.755 6.91426 16.755 7.89609C16.755 8.88008 16.3725 9.80391 15.6764 10.5L9.96159 16.2127L9.03562 17.1387C8.1698 18.0045 6.76257 18.0045 5.89675 17.1387C5.4778 16.7197 5.24792 16.1633 5.24792 15.5703C5.24792 14.9773 5.4778 14.4209 5.89675 14.002L11.5665 8.33437C11.7104 8.19258 11.8995 8.11309 12.1014 8.11309H12.1036C12.3055 8.11309 12.4925 8.19258 12.6342 8.33437C12.7782 8.47832 12.8555 8.66738 12.8555 8.86934C12.8555 9.06914 12.776 9.2582 12.6342 9.4L8.00007 14.0299C7.96355 14.0664 7.94421 14.1158 7.94421 14.1674C7.94421 14.2189 7.96355 14.2684 8.00007 14.3049L8.79284 15.0977C8.82908 15.1337 8.87813 15.154 8.92927 15.154C8.9804 15.154 9.02946 15.1337 9.06569 15.0977L13.6977 10.4656C14.1253 10.0381 14.3594 9.4709 14.3594 8.86719C14.3594 8.26348 14.1231 7.69414 13.6977 7.26875C12.8147 6.38574 11.3796 6.38789 10.4966 7.26875L9.94655 7.8209L4.82897 12.9363C4.48164 13.2816 4.20631 13.6924 4.01896 14.145C3.83161 14.5975 3.73596 15.0827 3.73757 15.5725C3.73757 16.5672 4.12644 17.5018 4.82897 18.2043C5.5573 18.9305 6.5112 19.2936 7.46511 19.2936C8.41901 19.2936 9.37292 18.9305 10.0991 18.2043L16.7421 11.5656C17.7196 10.5859 18.261 9.28184 18.261 7.89609C18.2632 6.5082 17.7217 5.2041 16.7421 4.22441Z"/>
</svg>
