<svg width="16" height="3" viewBox="0 0 16 3" xmlns="http://www.w3.org/2000/svg">
<path d="M0 1.3125C-3.63221e-09 1.48486 0.0339487 1.65553 0.099908 1.81477C0.165867 1.97401 0.262546 2.1187 0.384422 2.24058C0.506299 2.36245 0.650988 2.45913 0.810228 2.52509C0.969468 2.59105 1.14014 2.625 1.3125 2.625C1.48486 2.625 1.65553 2.59105 1.81477 2.52509C1.97401 2.45913 2.1187 2.36245 2.24058 2.24058C2.36245 2.1187 2.45913 1.97401 2.52509 1.81477C2.59105 1.65553 2.625 1.48486 2.625 1.3125C2.625 1.14014 2.59105 0.969468 2.52509 0.810228C2.45913 0.650988 2.36245 0.506299 2.24058 0.384422C2.1187 0.262545 1.97401 0.165868 1.81477 0.0999084C1.65553 0.033949 1.48486 0 1.3125 0C1.14014 0 0.969468 0.033949 0.810228 0.0999084C0.650988 0.165868 0.506299 0.262545 0.384422 0.384422C0.262546 0.506299 0.165867 0.650988 0.099908 0.810228C0.0339487 0.969468 -3.63221e-09 1.14014 0 1.3125V1.3125ZM6.5625 1.3125C6.5625 1.6606 6.70078 1.99444 6.94692 2.24058C7.19306 2.48672 7.5269 2.625 7.875 2.625C8.2231 2.625 8.55694 2.48672 8.80308 2.24058C9.04922 1.99444 9.1875 1.6606 9.1875 1.3125C9.1875 0.964403 9.04922 0.630564 8.80308 0.384422C8.55694 0.138281 8.2231 0 7.875 0C7.5269 0 7.19306 0.138281 6.94692 0.384422C6.70078 0.630564 6.5625 0.964403 6.5625 1.3125V1.3125ZM13.125 1.3125C13.125 1.6606 13.2633 1.99444 13.5094 2.24058C13.7556 2.48672 14.0894 2.625 14.4375 2.625C14.7856 2.625 15.1194 2.48672 15.3656 2.24058C15.6117 1.99444 15.75 1.6606 15.75 1.3125C15.75 0.964403 15.6117 0.630564 15.3656 0.384422C15.1194 0.138281 14.7856 0 14.4375 0C14.0894 0 13.7556 0.138281 13.5094 0.384422C13.2633 0.630564 13.125 0.964403 13.125 1.3125V1.3125Z"/>
</svg>
